<?xml version="1.0" standalone="no"?>
<!DOCTYPE svg PUBLIC "-//W3C//DTD SVG 20010904//EN"
 "http://www.w3.org/TR/2001/REC-SVG-20010904/DTD/svg10.dtd">
<svg version="1.0" xmlns="http://www.w3.org/2000/svg"
 width="512.000000pt" height="512.000000pt" viewBox="0 0 512.000000 512.000000"
 preserveAspectRatio="xMidYMid meet">
<metadata>
Created by potrace 1.14, written by Peter Selinger 2001-2017
</metadata>
<g transform="translate(0.000000,512.000000) scale(0.100000,-0.100000)"
fill="#000000" stroke="none">
<path d="M1027 4854 c-5 -5 -14 -9 -20 -9 -23 -1 -102 -44 -123 -67 -34 -38
-84 -127 -84 -149 0 -11 -4 -17 -10 -14 -5 3 -11 0 -11 -7 -1 -7 -3 -26 -6
-43 -13 -102 -3 -283 16 -295 7 -4 11 -11 10 -16 -2 -5 1 -25 6 -44 5 -19 9
-39 10 -45 0 -5 9 -37 19 -70 11 -33 19 -62 19 -65 -1 -5 22 -67 42 -115 5
-11 9 -23 10 -27 2 -5 3 -9 5 -10 1 -2 3 -11 5 -22 2 -10 22 -53 44 -96 22
-43 37 -80 34 -84 -4 -3 -1 -6 5 -6 7 0 12 -11 12 -25 0 -14 4 -25 8 -25 7 0
42 -61 48 -82 1 -5 2 -9 3 -10 2 -2 4 -13 7 -25 3 -16 -2 -24 -18 -29 -12 -4
-27 -12 -34 -18 -32 -30 -53 -44 -58 -39 -3 4 -6 1 -6 -6 0 -7 -4 -10 -9 -7
-5 3 -33 -20 -62 -52 -29 -31 -55 -56 -58 -55 -3 1 -12 -9 -19 -23 -7 -13 -17
-24 -22 -24 -13 0 -78 -71 -86 -93 -3 -11 -13 -27 -22 -37 -26 -28 -36 -42
-51 -72 -8 -16 -16 -26 -19 -23 -8 7 -44 -44 -37 -54 3 -5 -5 -17 -17 -25 -12
-9 -19 -16 -15 -16 6 0 -4 -20 -55 -110 -6 -12 -25 -58 -33 -80 -8 -23 -21
-47 -32 -58 -7 -8 -11 -18 -8 -23 4 -5 2 -9 -2 -9 -5 0 -15 -21 -22 -47 -8
-27 -15 -52 -17 -58 -10 -35 -17 -64 -21 -92 -3 -18 -8 -33 -12 -33 -4 0 -8
-10 -9 -22 0 -13 -3 -34 -6 -48 -14 -69 -27 -159 -28 -190 0 -19 -4 -39 -7
-45 -18 -26 8 -435 29 -474 8 -14 -9 -50 -37 -79 -7 -7 -13 -20 -13 -28 0 -8
-4 -14 -9 -14 -5 0 -20 -22 -32 -50 -12 -27 -26 -50 -30 -50 -5 0 -6 -7 -3
-15 4 -8 2 -15 -4 -15 -12 0 -15 -28 -16 -145 -1 -78 3 -98 26 -148 23 -49 98
-141 98 -120 0 3 8 -1 17 -9 27 -24 94 -55 133 -62 19 -3 46 -9 60 -12 39 -10
304 -11 317 -1 6 5 20 7 30 6 10 -2 34 1 53 6 19 4 49 9 65 10 17 2 44 6 60 9
17 4 39 9 50 10 11 2 27 6 35 9 8 3 29 9 45 13 17 4 37 9 45 11 8 3 23 5 33 6
9 1 17 5 17 8 0 4 12 9 28 11 18 2 26 8 24 18 -3 12 -1 13 9 3 15 -15 33 -17
24 -3 -3 6 -1 11 4 11 36 4 111 32 111 41 0 5 4 7 9 3 9 -5 26 0 107 36 23 10
54 21 68 25 14 3 26 10 26 16 0 5 6 8 13 6 15 -3 79 22 92 37 6 7 46 27 90 45
44 19 83 39 87 45 4 5 8 6 8 1 0 -5 6 -3 13 3 8 6 17 8 20 4 4 -3 7 -2 7 4 0
6 11 14 25 17 13 3 47 19 74 35 27 16 53 26 57 23 4 -4 4 -1 0 6 -5 9 9 20 46
36 30 13 60 31 68 41 22 26 21 97 -1 131 -10 16 -19 25 -19 20 0 -5 -6 -4 -12
1 -20 15 -87 14 -118 -2 -15 -8 -30 -11 -34 -8 -3 4 -6 1 -6 -5 0 -6 -16 -14
-36 -18 -20 -4 -31 -9 -26 -13 14 -8 -234 -136 -254 -131 -4 1 -10 -3 -13 -8
-3 -5 -19 -14 -36 -19 -16 -6 -29 -15 -28 -20 1 -5 -4 -10 -11 -10 -13 0 -72
-23 -108 -43 -10 -6 -22 -10 -28 -10 -6 0 -27 -7 -48 -17 -20 -9 -39 -17 -42
-18 -31 -8 -87 -30 -96 -37 -7 -5 -16 -8 -20 -6 -12 3 -86 -22 -101 -34 -7 -5
-17 -7 -23 -3 -5 3 -12 0 -15 -7 -3 -8 -17 -15 -31 -16 -14 -1 -31 -5 -37 -9
-11 -7 -21 -9 -62 -16 -11 -2 -25 -6 -31 -9 -5 -4 -35 -10 -65 -13 -30 -4 -61
-9 -69 -12 -46 -18 -349 -25 -369 -9 -8 6 -16 10 -18 8 -7 -6 -73 22 -73 31 0
4 -4 6 -10 2 -34 -21 -60 150 -27 182 14 14 20 11 66 -37 28 -29 51 -49 51
-44 0 5 4 4 8 -1 12 -18 74 -43 90 -37 11 4 14 1 10 -9 -4 -10 1 -15 13 -16
11 -1 17 2 15 6 -3 4 4 8 15 8 11 1 22 -4 25 -11 3 -8 14 -12 25 -9 10 3 17 8
15 12 -3 4 6 7 19 7 13 0 21 -4 19 -8 -9 -14 23 -8 36 7 6 8 15 14 18 13 13
-2 58 20 123 61 35 22 60 41 55 41 -5 0 3 12 17 26 15 15 24 30 21 35 -3 5 -1
9 3 9 5 0 16 12 25 28 19 31 78 97 78 86 0 -4 8 3 19 14 10 12 24 22 30 22 7
0 10 4 7 8 -7 11 2 22 61 70 29 24 57 41 63 37 5 -3 10 -2 10 4 0 5 24 25 54
42 30 18 53 36 51 39 -2 3 11 12 28 19 66 26 122 55 129 65 4 6 8 8 8 4 0 -4
21 1 48 11 55 21 74 28 84 30 4 1 26 8 48 16 42 15 43 15 61 15 5 0 7 6 3 13
-5 7 0 6 11 -3 11 -9 16 -10 11 -2 -4 6 -4 12 1 13 14 1 44 7 93 19 27 6 59
13 72 15 12 2 33 6 45 9 17 3 29 -4 50 -30 28 -35 83 -98 142 -163 17 -18 31
-39 31 -46 0 -7 3 -15 8 -17 4 -1 22 -20 40 -41 17 -21 32 -32 32 -25 0 7 6 4
12 -7 6 -11 22 -32 36 -47 14 -16 23 -28 20 -28 -4 0 12 -18 35 -41 23 -22 42
-44 42 -48 0 -4 8 -15 18 -25 9 -10 17 -15 17 -11 0 3 13 -6 29 -22 16 -15 28
-30 27 -33 -1 -7 116 -125 125 -125 3 0 17 -13 30 -28 43 -50 114 -122 149
-151 19 -16 43 -40 52 -55 10 -14 18 -22 18 -17 0 5 19 -10 42 -33 23 -24 58
-54 77 -67 54 -35 71 -50 71 -62 0 -6 9 -14 20 -17 11 -4 28 -17 36 -31 9 -13
22 -24 29 -24 7 0 39 -21 72 -47 51 -42 59 -53 59 -83 1 -51 19 -86 67 -134
63 -63 108 -78 192 -64 17 3 38 9 47 12 9 4 26 1 40 -8 13 -8 25 -15 28 -15 3
0 19 -5 35 -12 17 -7 32 -13 35 -14 5 -2 50 -20 80 -32 16 -6 40 -11 80 -17
14 -2 33 -7 42 -10 18 -8 170 -3 203 6 46 13 186 108 160 108 -4 0 3 13 14 29
12 16 21 36 21 44 0 9 4 18 9 22 11 6 11 8 14 107 1 38 6 68 10 68 5 0 5 5 1
11 -4 6 -8 41 -10 78 -4 76 -8 110 -17 131 -3 8 -8 34 -11 58 -3 23 -11 52
-17 65 -7 12 -12 23 -11 25 1 1 2 3 1 5 0 1 -2 12 -5 25 -2 13 -10 33 -16 45
-7 12 -11 28 -9 35 1 8 -3 20 -10 28 -6 8 -8 14 -4 14 4 0 2 7 -5 15 -10 12
-7 21 19 51 18 19 39 53 49 75 9 21 20 39 25 39 4 0 5 5 2 10 -4 6 -3 16 2 23
18 23 50 119 52 155 1 7 5 11 10 8 5 -4 12 13 16 36 4 24 11 48 15 53 4 6 8
17 8 25 0 8 5 42 11 75 25 142 35 337 19 369 -7 13 -7 16 2 11 9 -6 9 -2 0 14
-6 12 -10 32 -9 44 3 35 -13 127 -22 127 -5 0 -6 7 -3 15 4 8 3 23 -2 33 -11
25 -10 23 -19 69 -4 24 -11 40 -16 37 -5 -3 -9 -2 -10 3 -6 67 -82 243 -105
243 -8 0 -14 4 -14 10 0 5 -7 6 -17 3 -9 -4 -14 -2 -10 3 3 5 -3 10 -13 10
-10 0 -17 -3 -14 -7 2 -4 -10 -12 -26 -19 -16 -7 -27 -16 -25 -20 3 -5 1 -11
-3 -14 -8 -5 -8 -38 0 -93 1 -7 5 -13 10 -13 4 0 8 -8 8 -19 0 -19 18 -64 45
-111 8 -14 15 -37 15 -52 0 -15 5 -30 11 -33 6 -4 8 -13 5 -20 -2 -7 -2 -16 2
-19 3 -4 7 -14 9 -24 20 -100 24 -148 23 -282 0 -165 -2 -195 -15 -250 -5 -19
-10 -38 -11 -42 -1 -5 -3 -11 -4 -15 -1 -5 -3 -12 -4 -18 -7 -47 -31 -117 -41
-121 -7 -3 -12 -13 -11 -22 2 -9 -3 -23 -11 -30 -7 -7 -13 -22 -13 -33 0 -34
-40 -106 -81 -143 -21 -20 -39 -34 -39 -30 0 3 -6 2 -12 -4 -16 -12 -92 -14
-121 -2 -14 5 -16 9 -7 10 8 0 0 7 -18 15 -39 17 -103 75 -96 87 3 4 1 8 -4 8
-6 0 -22 20 -36 45 -31 52 -235 260 -265 270 -12 3 -21 11 -21 17 0 6 -3 9 -6
5 -4 -3 -12 -1 -20 6 -35 32 -46 39 -51 34 -4 -5 -27 11 -59 41 -11 11 -14 11
-14 1 0 -9 -4 -8 -12 3 -14 16 -75 48 -102 52 -8 1 -18 5 -22 8 -3 4 -16 3
-29 -2 -13 -5 -25 -7 -27 -4 -7 6 -36 -28 -40 -46 -2 -8 -7 -18 -11 -21 -17
-12 35 -91 58 -89 14 1 132 -65 142 -80 7 -10 25 -21 40 -25 29 -7 99 -59 145
-107 15 -15 33 -28 40 -28 9 0 9 -3 -2 -10 -10 -6 -11 -10 -2 -10 17 0 75 -62
130 -140 76 -106 156 -173 222 -186 19 -4 38 -11 41 -16 7 -10 51 -20 45 -10
-3 5 5 9 17 9 16 2 18 0 8 -6 -10 -7 -8 -11 10 -16 14 -5 25 -3 27 4 5 15 32
-13 32 -33 0 -9 5 -16 10 -16 6 0 10 -9 10 -21 0 -11 4 -18 8 -15 4 2 8 -3 9
-12 1 -19 6 -38 24 -102 7 -25 13 -53 15 -62 1 -10 3 -19 4 -20 12 -12 25
-242 15 -265 -5 -10 -7 -21 -7 -25 1 -4 -13 -22 -31 -40 -28 -28 -39 -32 -90
-32 -31 -1 -57 2 -57 7 0 4 -10 7 -23 7 -13 0 -27 3 -31 7 -6 6 -20 9 -63 15
-7 1 -13 4 -13 8 0 4 -18 13 -40 20 -49 16 -63 32 -65 73 -1 18 -6 41 -10 52
-14 31 -76 95 -94 95 -13 0 -13 2 -2 9 38 24 -152 46 -196 23 -17 -10 -25 -8
-44 11 -13 13 -36 28 -51 35 -16 6 -28 16 -28 22 0 5 -6 10 -14 10 -8 0 -16 3
-18 8 -1 4 -20 22 -41 39 -20 18 -38 36 -39 40 -2 5 -17 18 -36 30 -39 27 -47
34 -112 94 -27 25 -46 50 -42 54 4 5 2 5 -4 2 -6 -3 -17 2 -26 11 -13 16 -109
102 -167 152 -13 11 -22 20 -19 20 6 0 -49 59 -197 214 -38 41 -79 86 -90 101
-11 16 -46 56 -79 89 -32 34 -70 79 -84 101 -30 47 -58 76 -65 69 -2 -3 -7 2
-10 11 -5 11 1 15 23 15 16 0 31 4 34 9 3 4 18 6 33 4 69 -11 153 -12 153 -2
0 5 4 8 9 5 14 -9 41 40 41 74 0 47 -41 80 -101 81 -47 1 -66 4 -71 9 -6 5
-100 5 -104 -1 -2 -4 -45 -7 -96 -8 -50 -1 -96 -5 -102 -8 -5 -4 -30 -8 -55
-10 -105 -7 -120 -9 -127 -16 -4 -4 -18 -7 -30 -7 -13 0 -25 -4 -28 -9 -3 -4
-17 -6 -31 -4 -17 4 -27 0 -31 -11 -3 -9 -10 -16 -16 -16 -5 0 -6 6 -2 13 5 8
2 8 -9 -2 -14 -11 -17 -11 -17 0 0 11 -2 11 -10 -1 -5 -8 -13 -15 -17 -16 -4
0 -28 -7 -53 -14 -25 -7 -48 -14 -52 -14 -3 -1 -10 -4 -14 -8 -4 -5 -17 -8
-29 -8 -12 0 -30 -6 -40 -14 -11 -8 -25 -12 -32 -9 -7 3 -13 0 -13 -6 0 -6 -3
-10 -7 -9 -5 0 -16 -2 -25 -5 -57 -22 -54 -20 -95 -38 -18 -7 -33 -17 -33 -22
0 -4 -4 -6 -9 -3 -5 3 -25 -8 -45 -26 -20 -17 -42 -33 -50 -34 -17 -2 -92 -52
-124 -82 -14 -12 -28 -22 -33 -22 -4 0 -51 -43 -106 -95 -54 -52 -102 -95
-106 -95 -5 0 -6 -4 -3 -9 3 -4 -2 -18 -12 -30 -9 -12 -25 -31 -34 -44 -49
-64 -71 -87 -84 -87 -8 0 -14 -5 -14 -11 0 -6 -7 -8 -16 -5 -8 3 -12 2 -9 -3
8 -13 -23 -21 -74 -19 -32 1 -51 9 -74 29 -17 16 -33 27 -35 24 -6 -5 -53 51
-56 67 -2 7 -6 20 -9 28 -3 8 -8 29 -11 45 -9 41 -11 48 -17 60 -4 6 -5 20 -4
33 1 12 -1 22 -5 22 -3 0 -6 10 -7 23 -1 12 -5 42 -9 67 -4 25 -7 57 -7 72 0
16 -2 28 -6 28 -3 0 -6 54 -6 120 0 66 2 120 5 120 3 0 6 26 8 58 2 52 14 137
27 187 2 11 11 47 19 80 8 33 15 62 16 65 1 3 2 9 1 14 -1 4 4 14 10 22 6 8 9
14 5 14 -3 0 3 15 13 33 10 17 17 40 15 50 -1 9 2 17 7 17 6 0 9 6 7 13 -2 6
2 14 7 17 6 2 28 43 49 90 36 78 118 213 151 250 64 71 103 119 115 143 8 16
30 37 50 47 19 11 46 30 58 44 13 14 46 40 73 57 26 18 46 36 43 41 -3 5 -2 8
3 6 8 -2 84 33 93 43 8 9 90 39 90 33 0 -4 6 -1 14 5 7 6 35 14 62 17 27 4 54
10 59 14 18 12 152 -2 180 -19 6 -3 15 -6 22 -7 20 -3 123 -58 123 -65 0 -4
12 -10 27 -14 18 -4 23 -9 15 -14 -8 -5 2 -12 28 -21 22 -7 40 -17 40 -22 0
-5 4 -7 9 -4 5 4 11 3 13 -1 3 -9 109 -58 168 -78 3 -1 12 -4 20 -8 34 -14
108 -30 145 -32 22 -1 42 -3 45 -5 3 -1 15 -1 28 0 12 1 22 -4 22 -10 0 -6 5
-8 13 -3 16 10 38 13 33 4 -6 -9 150 -8 159 1 4 4 13 4 21 1 8 -3 14 -1 14 4
0 5 15 10 33 11 17 2 50 8 72 14 22 6 47 12 55 14 24 4 104 35 116 45 6 5 14
6 17 2 4 -3 7 -2 7 4 0 11 37 27 54 24 5 -1 16 5 26 14 9 8 19 13 22 10 3 -3
16 5 29 17 14 13 49 34 79 48 30 14 57 28 58 33 2 4 12 7 23 7 10 0 19 5 19
10 0 6 3 9 8 9 4 -1 10 0 15 1 4 1 10 3 15 5 4 1 14 4 22 8 8 3 29 9 45 13 17
4 37 9 45 11 30 9 155 10 166 1 7 -5 16 -8 20 -6 16 4 74 -14 74 -22 0 -5 7
-7 16 -3 9 3 19 2 23 -3 3 -5 28 -20 54 -33 26 -13 67 -42 90 -63 83 -76 96
-86 102 -79 4 3 5 1 3 -4 -4 -13 47 -75 61 -75 6 0 11 -4 11 -9 0 -5 7 -12 16
-15 10 -4 13 -2 8 7 -5 9 -4 9 7 0 7 -7 17 -13 22 -13 4 0 5 6 1 13 -6 9 -5 9
7 0 13 -10 19 -9 35 10 41 50 43 61 24 104 -10 22 -25 43 -34 46 -10 4 -14 11
-11 17 3 5 2 10 -3 10 -5 0 -15 11 -22 25 -7 14 -22 25 -32 25 -10 0 -18 7
-18 15 0 8 -4 15 -9 15 -9 0 -51 35 -102 85 -14 14 -34 25 -43 25 -9 0 -16 5
-16 10 0 6 -7 10 -15 10 -8 0 -15 4 -15 8 0 6 -22 18 -70 37 -27 10 -68 27
-80 32 -41 17 -320 20 -320 3 0 -3 -12 -7 -26 -8 -14 -1 -62 -18 -107 -38 -45
-19 -99 -43 -119 -52 -26 -11 -34 -18 -25 -24 9 -6 8 -8 -3 -8 -8 0 -50 -18
-92 -39 -42 -21 -79 -36 -82 -33 -3 3 -6 0 -6 -6 0 -7 -3 -11 -7 -10 -11 2
-67 -25 -75 -37 -5 -6 -8 -6 -8 2 0 8 -8 7 -29 -3 -15 -8 -50 -17 -76 -21 -44
-6 -47 -5 -34 9 8 9 16 14 18 12 2 -2 10 1 18 7 7 6 13 8 13 4 0 -5 8 2 19 13
10 12 21 19 25 15 3 -3 6 -1 6 5 0 7 6 12 13 12 18 0 130 60 150 81 10 10 29
22 42 25 14 3 25 11 25 17 0 6 3 8 6 4 3 -3 26 6 50 19 24 14 44 21 44 17 0
-4 4 -3 8 2 4 6 46 29 95 52 48 24 87 47 87 52 0 5 11 12 25 15 13 3 64 25
112 48 48 24 91 43 96 44 4 1 9 3 12 4 3 1 8 3 13 4 38 11 91 40 85 49 -4 6 0
8 10 4 10 -4 17 -2 17 4 0 6 7 9 15 5 8 -3 15 -1 15 4 0 6 4 10 9 10 5 0 22 5
38 12 15 6 30 12 33 13 19 6 48 18 65 26 12 6 27 11 35 13 8 1 40 11 70 21 30
11 57 19 60 20 3 0 10 3 15 6 6 4 29 10 53 14 30 5 42 12 42 23 0 10 3 13 8 7
9 -13 35 -18 27 -5 -6 10 7 14 32 11 6 -1 14 3 18 9 3 5 17 10 30 10 13 0 26
4 30 10 3 5 12 7 20 3 8 -3 23 -2 33 2 9 5 26 9 37 11 127 20 182 25 250 25
95 -1 155 -10 155 -23 0 -5 4 -7 9 -3 14 8 61 -43 62 -68 3 -41 -3 -112 -9
-122 -4 -5 -7 -19 -8 -30 -2 -28 -20 -70 -39 -92 -8 -10 -16 -22 -16 -28 -1
-5 -10 -22 -20 -37 -10 -14 -19 -30 -19 -34 0 -21 -33 -42 -53 -35 -71 26
-222 2 -282 -44 -53 -40 -75 -62 -75 -74 0 -6 -5 -11 -12 -11 -6 0 -8 -3 -5
-6 3 -4 1 -16 -5 -28 -14 -24 -13 -21 -23 -63 -4 -18 -11 -30 -16 -27 -5 3
-10 -12 -10 -33 -2 -55 2 -78 12 -81 5 -2 9 -15 9 -28 0 -13 5 -24 10 -24 6 0
9 -3 8 -7 -1 -5 4 -20 11 -35 12 -23 11 -30 -9 -58 -12 -17 -24 -29 -26 -27
-5 5 -116 -104 -154 -151 -14 -17 -29 -31 -34 -32 -8 0 -31 -20 -135 -120 -26
-25 -84 -75 -128 -111 -45 -37 -79 -70 -76 -73 6 -5 -5 -8 -23 -5 -4 0 -10 -3
-13 -8 -3 -5 -33 -31 -66 -58 -33 -28 -63 -54 -67 -60 -4 -6 -8 -6 -8 -1 0 6
-13 -3 -30 -19 -16 -16 -30 -25 -31 -19 0 5 -3 2 -7 -7 -7 -18 -110 -99 -125
-99 -5 0 -15 -6 -22 -12 -29 -26 -42 -36 -63 -47 -12 -6 -22 -18 -22 -26 0 -8
-11 -17 -24 -21 -14 -3 -27 -12 -30 -21 -3 -8 -10 -12 -15 -9 -5 4 -15 0 -23
-7 -7 -7 -45 -34 -85 -61 -42 -29 -70 -54 -66 -60 4 -6 -2 -4 -12 4 -11 9 -16
10 -11 3 4 -7 3 -13 -2 -13 -8 0 -49 -29 -97 -68 -5 -4 -26 -17 -45 -27 -45
-25 -91 -66 -84 -76 2 -4 0 -10 -5 -13 -6 -4 -6 -18 -1 -36 5 -17 10 -34 11
-38 7 -30 31 -44 81 -48 47 -3 59 1 105 31 29 19 55 35 59 35 3 0 25 14 49 30
24 17 50 30 57 30 10 0 10 2 1 8 -8 5 -1 14 22 26 19 11 35 23 35 28 0 5 5 6
12 2 6 -4 16 -1 22 7 6 8 32 28 58 44 27 17 48 34 48 38 0 5 5 5 10 2 6 -3 10
-1 10 4 0 6 6 11 14 11 8 0 21 8 28 18 7 10 29 29 48 42 37 26 42 29 79 60 13
11 29 20 34 20 11 0 20 7 80 65 20 20 37 33 37 29 0 -4 8 3 19 14 10 12 23 22
30 22 6 0 11 5 11 11 0 5 4 7 10 4 5 -3 15 3 22 15 7 11 18 20 25 20 7 0 13 5
13 12 0 6 3 8 6 5 7 -7 54 42 54 56 0 4 7 7 15 7 9 0 18 7 21 15 4 8 10 12 15
9 5 -3 9 -1 9 4 0 5 17 21 38 34 20 14 64 51 97 83 33 31 77 71 98 89 60 49
71 59 95 90 12 16 22 26 22 22 0 -3 37 31 82 76 46 46 86 82 90 81 5 -2 7 1 5
5 -1 4 11 20 26 36 19 19 33 26 45 20 24 -10 135 -13 147 -3 6 4 23 9 38 11
16 3 33 11 38 19 5 8 9 10 9 6 0 -4 10 1 22 12 11 11 25 18 29 15 10 -6 69 73
69 93 0 7 4 13 9 13 9 0 26 56 19 63 -2 2 2 10 8 18 18 23 8 154 -15 197 -8
15 -4 31 17 73 15 30 33 60 40 67 6 7 12 17 12 22 0 5 7 16 16 24 9 9 17 22
18 29 1 6 5 17 9 24 8 13 35 85 44 118 3 11 6 35 7 53 0 17 5 32 10 32 5 0 6
39 2 88 -9 117 -8 112 -19 112 -5 0 -7 6 -4 14 3 8 -1 20 -9 26 -8 7 -14 19
-14 26 0 8 -4 14 -9 14 -5 0 -11 10 -15 23 -5 18 -8 20 -16 7 -9 -13 -10 -13
-10 0 0 13 -36 53 -50 56 -3 0 -18 7 -35 14 -16 7 -33 13 -37 12 -5 -1 -8 2
-8 6 0 5 -12 9 -27 11 -110 8 -150 14 -162 24 -12 9 -13 9 -7 0 5 -10 -12 -13
-78 -13 -47 0 -87 -4 -90 -9 -3 -4 -24 -6 -46 -4 -22 2 -40 0 -40 -4 0 -5 -12
-9 -27 -10 -33 -2 -168 -28 -168 -33 0 -2 -20 -7 -59 -15 -16 -3 -37 -10 -46
-15 -10 -5 -20 -6 -24 -3 -3 4 -13 -2 -22 -13 -8 -10 -13 -13 -9 -6 3 6 2 12
-3 12 -6 0 -12 -7 -16 -15 -3 -8 -9 -14 -13 -13 -16 4 -73 -14 -73 -22 0 -5
-7 -7 -15 -4 -8 4 -21 1 -29 -5 -8 -7 -18 -11 -22 -10 -11 3 -34 -6 -92 -32
-23 -10 -48 -19 -56 -19 -7 0 -35 -11 -62 -25 -27 -14 -54 -25 -60 -25 -6 0
-17 -7 -24 -15 -7 -9 -19 -14 -27 -11 -7 3 -13 2 -13 -2 0 -4 -15 -14 -32 -21
-18 -8 -35 -15 -38 -16 -3 -1 -20 -8 -37 -16 -18 -7 -33 -17 -33 -22 0 -4 -4
-6 -9 -3 -5 3 -46 -12 -92 -35 -45 -22 -92 -43 -103 -45 -12 -2 -25 -10 -31
-17 -12 -16 -76 -52 -87 -49 -5 1 -8 -2 -8 -8 0 -5 -7 -10 -15 -10 -8 0 -15
-5 -15 -11 0 -5 -4 -8 -9 -5 -5 3 -31 -6 -57 -21 -27 -14 -61 -32 -77 -40 -15
-8 -24 -19 -21 -25 4 -7 2 -8 -4 -4 -7 4 -12 2 -12 -5 0 -7 -3 -9 -6 -6 -7 7
-85 -31 -135 -65 -14 -9 -29 -15 -33 -11 -3 3 -6 1 -6 -5 0 -6 -16 -16 -35
-22 -19 -6 -35 -16 -35 -21 0 -5 -6 -9 -14 -9 -7 0 -24 -10 -38 -22 -13 -13
-49 -36 -78 -52 -30 -16 -75 -43 -99 -59 -25 -17 -50 -30 -58 -30 -7 0 -13 -3
-13 -6 0 -11 -52 -12 -64 -2 -6 5 -15 10 -21 11 -5 1 -27 11 -47 21 -21 11
-38 16 -38 12 0 -5 -4 -3 -8 2 -4 6 -33 24 -64 40 -32 17 -58 33 -58 38 0 4
-7 7 -15 7 -9 0 -18 7 -21 15 -4 8 -14 15 -24 15 -10 0 -20 3 -22 8 -5 11
-108 64 -108 56 0 -5 -5 -3 -12 4 -7 7 -25 12 -40 12 -15 0 -28 3 -28 8 0 7
-15 9 -120 12 -72 1 -125 -6 -179 -25 -36 -12 -75 -6 -77 11 0 5 -17 44 -37
88 -20 43 -37 82 -37 87 0 5 -5 9 -11 9 -5 0 -7 5 -4 10 3 6 -1 17 -9 26 -9 9
-14 20 -11 25 4 5 2 9 -2 9 -8 0 -43 68 -43 83 0 3 -5 18 -12 34 -6 15 -12 33
-14 38 -1 6 -12 39 -24 75 -12 36 -23 72 -25 80 -2 8 -8 35 -14 60 -21 83 -35
274 -23 295 4 6 8 21 10 35 1 14 16 37 32 53 26 23 39 27 88 27 31 0 75 -5 97
-12 22 -6 46 -11 53 -9 6 1 12 -3 12 -9 0 -5 8 -10 18 -10 10 0 27 -7 38 -15
12 -8 24 -11 28 -8 3 3 6 -1 6 -10 0 -10 3 -16 8 -15 11 3 82 -35 82 -44 0 -4
8 -8 18 -8 9 0 28 -9 42 -20 14 -11 30 -20 36 -20 7 0 14 -7 18 -15 3 -8 11
-15 18 -15 7 0 30 -16 51 -35 21 -19 41 -35 45 -35 4 0 21 -12 37 -26 17 -14
58 -46 93 -71 35 -25 59 -49 55 -55 -3 -6 -2 -8 4 -5 5 3 35 -18 66 -48 31
-30 62 -55 67 -55 6 0 10 -7 10 -15 0 -8 6 -12 13 -10 6 3 23 -9 37 -26 37
-47 123 -129 134 -129 9 0 76 -64 76 -72 0 -9 95 -108 103 -108 2 0 23 -17 47
-39 38 -34 51 -39 93 -32 5 0 5 6 2 11 -9 14 9 12 24 -2 10 -11 11 -10 6 5 -5
11 -2 17 8 17 8 0 22 18 31 41 15 37 15 43 -1 77 -9 20 -25 44 -35 52 -44 35
-158 151 -158 160 0 6 -4 10 -9 10 -14 0 -176 163 -173 174 2 5 -4 3 -13 -4
-13 -11 -15 -10 -9 6 4 10 4 16 -1 12 -4 -4 -24 9 -43 28 -20 20 -56 52 -81
72 -25 20 -47 40 -49 45 -2 4 -10 7 -18 7 -9 0 -12 5 -9 10 3 6 3 10 -2 10 -4
0 -20 10 -34 23 -61 51 -102 81 -115 83 -7 1 -24 14 -37 28 -13 14 -30 26 -36
26 -7 0 -9 5 -6 10 3 6 1 10 -4 10 -6 0 -20 9 -31 20 -11 11 -20 17 -20 14 0
-4 -7 0 -16 7 -19 16 -48 33 -89 53 -16 8 -43 24 -60 36 -16 11 -38 20 -48 20
-10 0 -16 4 -13 9 6 9 -91 57 -111 54 -7 0 -13 3 -13 8 0 4 -17 11 -37 15 -21
4 -42 9 -48 13 -18 10 -39 13 -145 18 -58 3 -109 1 -113 -3z"/>
<path d="M3465 3150 c3 -4 -8 -10 -24 -13 -16 -3 -36 -13 -45 -22 -9 -9 -16
-13 -16 -8 0 4 -9 -9 -20 -30 -37 -69 -17 -185 37 -210 12 -5 23 -14 23 -18 0
-4 8 -6 18 -4 9 1 27 -2 40 -6 12 -5 22 -5 22 0 0 5 12 8 26 6 29 -3 104 60
104 88 0 9 5 17 10 17 6 0 10 18 10 40 0 22 -4 40 -10 40 -5 0 -10 9 -10 20 0
11 -5 20 -11 20 -6 0 -9 6 -6 13 5 14 -86 67 -125 71 -15 2 -25 0 -23 -4z"/>
<path d="M1359 3116 c-4 -4 -16 -8 -28 -11 -23 -4 -51 -28 -51 -43 0 -6 -5
-12 -12 -14 -13 -5 -17 -27 -22 -138 -2 -41 -4 -78 -5 -82 -1 -5 -46 -8 -101
-8 l-101 0 -44 -46 c-50 -51 -48 -46 -49 -124 -1 -51 10 -83 26 -74 4 2 9 -4
13 -15 5 -17 38 -35 58 -32 4 1 7 -3 7 -9 0 -6 3 -9 8 -9 4 1 48 1 97 0 l91
-1 3 -97 c2 -93 15 -139 45 -168 24 -22 83 -42 116 -38 57 5 60 6 60 15 0 4 8
8 19 8 21 0 45 23 34 33 -3 4 -1 7 5 7 18 0 34 69 36 154 l1 81 95 7 c52 4
101 8 109 9 20 3 82 69 76 80 -4 5 -1 9 5 9 6 0 9 4 5 9 -3 5 -1 12 5 16 5 3
10 20 10 36 0 18 -4 28 -10 24 -5 -3 -10 2 -10 12 0 10 -6 25 -13 34 -63 80
-49 74 -165 79 l-107 5 -1 80 c-2 109 -17 155 -61 184 -35 22 -131 40 -144 27z"/>
<path d="M3068 2788 c-60 -59 -71 -97 -54 -174 8 -36 56 -85 89 -93 45 -9 137
-3 137 11 0 4 13 15 29 24 16 10 33 27 38 38 8 17 10 96 4 128 0 3 -20 26 -42
49 -39 40 -45 43 -104 47 -61 4 -65 3 -97 -30z"/>
<path d="M2303 2515 c-9 -28 -10 -83 -3 -95 4 -7 58 -10 145 -8 l138 3 1 33
c1 17 -2 32 -5 32 -3 0 -4 11 -1 25 2 14 0 25 -4 26 -5 1 -66 2 -136 3 -121 2
-128 1 -135 -19z"/>
</g>
</svg>
